<?xml version="1.0" standalone="no"?>
<!DOCTYPE svg PUBLIC "-//W3C//DTD SVG 20010904//EN"
 "http://www.w3.org/TR/2001/REC-SVG-20010904/DTD/svg10.dtd">
<svg version="1.0" xmlns="http://www.w3.org/2000/svg"
 width="700.000000pt" height="700.000000pt" viewBox="0 0 700.000000 700.000000"
 preserveAspectRatio="xMidYMid meet">
<metadata>
Created by potrace 1.14, written by Peter Selinger 2001-2017
</metadata>
<g transform="translate(0.000000,700.000000) scale(0.100000,-0.100000)"
fill="#000000" stroke="none">
<path d="M355 4696 c-2 -6 -3 -636 -2 -1401 l2 -1390 993 -1 c545 0 993 2 993
5 1 3 2 126 3 273 l2 268 -635 2 -635 3 0 1126 0 1126 -359 0 c-255 0 -360 -3
-362 -11z"/>
<path d="M3513 4702 c-6 -4 -37 -77 -68 -162 -31 -85 -61 -163 -66 -172 -5
-10 -9 -23 -9 -29 0 -6 -6 -25 -14 -42 -14 -33 -33 -82 -91 -242 -52 -142
-394 -1066 -409 -1105 -19 -46 -28 -73 -32 -85 -1 -5 -22 -64 -47 -130 -61
-161 -232 -623 -263 -710 -14 -38 -30 -80 -35 -93 -5 -13 -9 -24 -9 -26 0 -6
709 -3 719 3 6 4 26 52 45 106 104 302 137 389 145 394 5 3 260 6 566 6 l558
-1 23 -64 c12 -36 46 -132 74 -215 28 -82 58 -168 66 -191 l15 -41 363 0 363
0 -75 201 c-41 111 -85 233 -98 271 -14 39 -29 79 -34 90 -5 11 -19 47 -30 80
-12 33 -25 69 -30 80 -4 11 -13 36 -20 55 -7 19 -16 44 -21 55 -10 23 -129
345 -133 360 -2 6 -6 17 -9 25 -3 8 -29 78 -58 155 -55 150 -102 278 -125 335
-7 19 -45 123 -84 230 -39 107 -75 205 -81 218 -17 41 -187 506 -194 532 -4
14 -11 30 -15 35 -4 6 -13 26 -19 46 l-12 36 -422 1 c-233 0 -428 -2 -434 -6z
m437 -688 c0 -8 4 -22 10 -32 5 -9 28 -73 50 -142 23 -69 45 -134 50 -145 5
-11 20 -56 35 -100 15 -44 72 -210 126 -369 54 -159 99 -290 99 -290 0 -1
-171 -1 -381 -1 l-380 0 6 25 c6 25 151 453 185 545 11 28 56 159 102 292 72
212 98 269 98 217z"/>
<path d="M5892 2268 l3 -363 337 -1 337 -1 0 363 0 364 -340 0 -339 0 2 -362z"/>
</g>
</svg>
