<?xml version="1.0" standalone="no"?>
<!DOCTYPE svg PUBLIC "-//W3C//DTD SVG 20010904//EN"
 "http://www.w3.org/TR/2001/REC-SVG-20010904/DTD/svg10.dtd">
<svg version="1.0" xmlns="http://www.w3.org/2000/svg"
 width="1103.000000pt" height="1103.000000pt" viewBox="0 0 1103.000000 1103.000000"
 preserveAspectRatio="xMidYMid meet">
<metadata>
Created by potrace 1.14, written by Peter Selinger 2001-2017
</metadata>
<g transform="translate(0.000000,1103.000000) scale(0.100000,-0.100000)"
fill="#000000" stroke="none">
<path d="M5279 10526 c-2 -2 -60 -7 -128 -10 -68 -4 -127 -8 -130 -10 -3 -2
-40 -7 -81 -10 -41 -4 -100 -11 -130 -16 -30 -5 -77 -12 -105 -15 -89 -11
-414 -84 -559 -125 -208 -60 -442 -143 -593 -211 -23 -11 -45 -19 -48 -19 -3
0 -86 -39 -183 -87 -608 -297 -1128 -694 -1582 -1208 -128 -145 -293 -358
-380 -490 -230 -348 -401 -676 -531 -1015 -28 -74 -52 -139 -53 -145 -2 -5 -6
-17 -9 -25 -44 -119 -152 -509 -171 -625 -3 -16 -8 -46 -11 -65 -3 -19 -8 -42
-10 -50 -2 -8 -6 -33 -10 -55 -3 -22 -7 -47 -10 -55 -2 -8 -6 -36 -9 -62 -10
-85 -16 -132 -21 -173 -4 -39 -10 -105 -20 -235 -13 -161 -1 -631 20 -815 3
-22 7 -60 10 -85 4 -47 13 -117 21 -160 2 -14 11 -65 19 -115 13 -80 22 -130
29 -160 1 -5 8 -37 15 -70 53 -250 167 -603 281 -875 73 -172 258 -531 345
-665 137 -214 229 -346 273 -395 12 -14 22 -28 22 -32 0 -3 6 -13 13 -20 6 -7
43 -51 82 -98 319 -390 706 -739 1125 -1015 130 -86 140 -92 317 -191 306
-173 704 -341 1018 -429 33 -9 71 -21 85 -26 65 -22 350 -85 470 -104 19 -3
58 -10 85 -15 28 -5 70 -12 94 -14 25 -3 63 -8 85 -10 189 -24 308 -30 581
-31 232 0 455 8 525 19 14 2 52 7 85 11 65 7 115 14 155 21 14 2 45 7 70 10
25 3 86 14 135 25 50 10 104 21 120 23 90 16 344 86 515 143 376 126 675 264
1015 469 211 126 410 268 607 431 143 119 169 143 348 323 181 181 247 255
413 460 90 111 366 525 400 600 4 8 19 35 33 60 113 196 260 525 351 785 47
135 124 404 139 485 3 14 9 41 14 60 5 19 12 49 14 65 3 17 8 41 11 55 5 26
33 185 40 230 5 31 23 170 30 230 13 120 20 263 20 450 0 190 -10 448 -19 495
-2 11 -7 61 -12 110 -4 50 -8 92 -9 95 0 3 -5 31 -9 64 -4 32 -10 70 -12 85
-5 26 -29 163 -38 211 -3 14 -16 75 -30 135 -188 812 -565 1544 -1124 2185
-74 85 -370 382 -447 447 -438 376 -856 641 -1338 847 -190 82 -523 199 -657
231 -8 2 -49 12 -90 23 -104 27 -310 69 -476 97 -12 2 -48 6 -80 10 -33 4 -70
9 -84 11 -14 2 -56 6 -95 10 -38 3 -81 8 -95 10 -30 6 -636 15 -641 10z"/>
</g>
</svg>
