<?xml version="1.0" standalone="no"?>
<!DOCTYPE svg PUBLIC "-//W3C//DTD SVG 20010904//EN"
 "http://www.w3.org/TR/2001/REC-SVG-20010904/DTD/svg10.dtd">
<svg version="1.0" xmlns="http://www.w3.org/2000/svg"
 width="700.000000pt" height="700.000000pt" viewBox="0 0 700.000000 700.000000"
 preserveAspectRatio="xMidYMid meet">
<metadata>
Created by potrace 1.14, written by Peter Selinger 2001-2017
</metadata>
<g transform="translate(0.000000,700.000000) scale(0.100000,-0.100000)"
fill="#000000" stroke="none">
<path d="M1892 3368 l3 -973 603 -3 602 -2 0 110 0 110 -470 0 -470 0 0 865 0
865 -135 0 -135 0 2 -972z"/>
<path d="M3577 3378 c-202 -530 -367 -969 -367 -975 0 -10 33 -13 134 -13
l134 0 88 250 89 250 440 0 440 0 29 -83 c16 -45 56 -157 89 -249 l59 -168
134 0 c74 0 134 3 134 8 0 4 -166 441 -368 972 l-368 965 -150 3 -149 2 -368
-962z m693 222 c95 -256 175 -471 177 -477 4 -10 -70 -13 -352 -13 -336 0
-357 1 -352 18 4 14 304 830 336 916 7 16 13 27 15 25 3 -2 82 -213 176 -469z"/>
<path d="M5762 3348 l3 -80 438 -156 c240 -85 437 -158 437 -162 0 -3 -197
-76 -437 -161 l-438 -154 -3 -79 c-3 -77 -3 -78 20 -72 13 3 262 93 553 199
l530 193 3 74 3 75 -393 142 c-216 79 -466 170 -556 202 l-163 59 3 -80z"/>
<path d="M872 3222 l-542 -197 2 -74 3 -73 530 -193 c292 -106 540 -195 553
-199 22 -7 22 -6 22 71 l0 78 -440 155 c-242 85 -440 157 -440 160 0 3 197 75
438 161 l437 155 3 77 c2 58 0 77 -10 76 -7 0 -257 -89 -556 -197z"/>
<path d="M5200 2505 l0 -105 90 0 90 0 0 105 0 105 -90 0 -90 0 0 -105z"/>
</g>
</svg>
